<svg xmlns="http://www.w3.org/2000/svg" width="172.005" height="173.389" viewBox="0 0 172.005 173.389">
  <g id="Calendar_big" transform="translate(0.107)">
    <rect id="Rectangle_557" data-name="Rectangle 557" width="172.005" height="172.005" transform="translate(-0.107 1.384)" fill="none"/>
    <path id="Path_149" data-name="Path 149" d="M21.376,53.44v96.192H149.633V53.44ZM138.945,21.376h21.376c6.413,0,10.688,4.275,10.688,10.688V160.321c0,6.413-4.275,10.688-10.688,10.688H10.688C4.275,171.009,0,166.734,0,160.321V32.064c0-6.413,4.275-10.688,10.688-10.688H32.064V10.688C32.064,4.275,36.339,0,42.752,0S53.44,4.275,53.44,10.688V21.376h64.128V10.688C117.569,4.275,121.844,0,128.257,0s10.688,4.275,10.688,10.688ZM128.257,128.257H106.881V106.881h21.376Zm-32.064,0H74.816V106.881H96.192Zm32.064-32.064H106.881V74.816h21.376Zm-32.064,0H74.816V74.816H96.192ZM64.128,128.257H42.752V106.881H64.128Z" transform="translate(0.392)" fill="#f15a1c"/>
  </g>
</svg>
