<svg xmlns="http://www.w3.org/2000/svg" width="216.055" height="327" viewBox="0 0 216.055 327">
  <g id="lady" transform="translate(-1572.355 -191)">
    <ellipse id="Ellipse_32" data-name="Ellipse 32" cx="23.953" cy="25.427" rx="23.953" ry="25.427" transform="translate(1643.832 191)" fill="#2f2e41"/>
    <ellipse id="Ellipse_33" data-name="Ellipse 33" cx="108.028" cy="8.807" rx="108.028" ry="8.807" transform="translate(1572.355 500.387)" fill="#e6e6e6"/>
    <path id="Path_135" data-name="Path 135" d="M735.807,442.773l-5.414,5.077s-14.669,11.962-7.86,16.35,14.4-13.206,14.4-13.206l2.925-4.539Z" transform="translate(889.224 -92.263)" fill="#c4939a"/>
    <path id="Path_136" data-name="Path 136" d="M774.313,284.667l-7.651,1.8a58.988,58.988,0,0,0-1.35,14.851c.45,7.2-1.761,20.565-1.761,20.565l-5.188,12.066-21.723,41.1,13.5,5.871,24.17-47.2,2.25-30.152Z" transform="translate(882.097 -21.437)" fill="#e6e6e6"/>
    <path id="Path_137" data-name="Path 137" d="M678.214,62.365l6.75,17.551-17.1,7.2-1.5-3.4-5.249-11.9Z" transform="translate(1002.048 163.063)" fill="#c4939a"/>
    <path id="Path_138" data-name="Path 138" d="M842.265,385.169l6.3,29.7,8.551,66.605-6.3,60.755s-18.9,6.3-26.1-5.4l8.551-49.954-17.1-58.954-2.7,58.055,4.5,50.4s-13.951,8.1-25.2,0l-7.651-99.908s-5.85-43.653,7.651-58.055Z" transform="translate(860.949 -63.434)" fill="#2f2e41"/>
    <path id="Path_139" data-name="Path 139" d="M15.076,0a15.079,15.079,0,0,1,5.775,29.007,14.54,14.54,0,0,1-5.775,1.145A15.076,15.076,0,0,1,15.076,0Z" transform="translate(1651.685 206.751)" fill="#c4939a"/>
    <path id="Path_140" data-name="Path 140" d="M808.919,253.451l1.474-4.7s13.582-2.238,17.53-6.645l7.1,7.293s19.352,6.3,22.052,9-10.8,44.553-10.8,44.553,3.15,7.2-2.25,10.351c0,0,8.1,12.151,1.8,13.5s-51.754-8.1-51.754-8.1-3.15-5.4,4.05-7.651c0,0-2.7-6.3.45-8.551s.45-14.851.45-14.851-9.451-18.9-8.1-20.252S808.919,253.451,808.919,253.451Z" transform="translate(857.841 -2.371)" fill="#e6e6e6"/>
    <path id="Path_141" data-name="Path 141" d="M893.182,460.2l-.45,3.6s.45,21.6-7.651,20.7-3.15-22.052-3.15-22.052l1.35-4.95Z" transform="translate(817.682 -98.858)" fill="#c4939a"/>
    <path id="Path_142" data-name="Path 142" d="M869.071,666.364s-1.8,18,1.35,19.351,24.3,12.6,18,17.551-27.452-8.1-29.7-5.85-9.451.45-9.9-3.6.45-11.251,4.05-15.751,3.6-13.5,3.6-13.5Z" transform="translate(831.893 -191.617)" fill="#2f2e41"/>
    <path id="Path_143" data-name="Path 143" d="M822.91,655.6l3.151,14.851s6.75,14.851.9,18-6.75,3.6-7.2,5.4-12.6,11.251-16.2,4.05,9.451-17.551,9.451-17.551l2.25-4.95-2.25-17.551Z" transform="translate(852.401 -187.6)" fill="#2f2e41"/>
    <path id="Path_144" data-name="Path 144" d="M797.866,189.437c9.476-6.323,12.309-7.835,23.17-5.392l.651-15.846-28.068,5.888Z" transform="translate(856.572 30.737)" fill="#2f2e41"/>
    <path id="Path_145" data-name="Path 145" d="M893.667,272.074l4.5-.45s4.5,11.7,4.5,17.551v38.7l-7.2,50.854-13.951-2.25,7.651-45.454-2.25-27.452Z" transform="translate(817.198 -15.594)" fill="#e6e6e6"/>
    <path id="Path_146" data-name="Path 146" d="M708.442,430.647,721.59,456.2a1.291,1.291,0,0,1-.557,1.738l-10.372,5.338a1.289,1.289,0,0,1-1.738-.557l-13.148-25.548a1.291,1.291,0,0,1,.557-1.739l1.552-.8.1.2a1.063,1.063,0,0,0,1.432.459l5.275-2.715a1.063,1.063,0,0,0,.459-1.432l-.1-.2,1.654-.851a1.291,1.291,0,0,1,1.739.557Z" transform="translate(900.467 -86.517)" fill="#249aff"/>
  </g>
</svg>
