<svg xmlns="http://www.w3.org/2000/svg" width="424.918" height="88" viewBox="0 0 424.918 88">
  <g id="car-logo" transform="translate(-362.082 -145)">
    <g id="thecar" transform="translate(12.082 7)">
      <path id="Path_107" data-name="Path 107" d="M148.8,455.971l-40.52-14.432v-.2H40.737L0,455.971H.117v3.9h148.8v-3.9Z" transform="translate(350 -234.242)" fill="#e6e6e6"/>
      <path id="Path_108" data-name="Path 108" d="M386.051,432.46a2.352,2.352,0,0,0-1.333.449l-4.223-34.485A5.835,5.835,0,0,0,374.7,393.3H345.869a5.835,5.835,0,0,0-5.792,5.126l-4.223,34.485a2.352,2.352,0,0,0-1.333-.449c-2.277,0-4.122,3.691-4.122,8.245s1.846,8.245,4.122,8.245c1.73,0,3.208-2.133,3.82-5.153h43.889c.612,3.02,2.09,5.153,3.82,5.153,2.277,0,4.122-3.691,4.122-8.245S388.328,432.46,386.051,432.46Zm-39.162,2.061a5.153,5.153,0,1,1,5.153-5.153,5.153,5.153,0,0,1-5.153,5.153Zm25.765,0a5.153,5.153,0,1,1,5.153-5.153,5.153,5.153,0,0,1-5.153,5.153Zm6.183-19.687a3.2,3.2,0,0,1-3.2,3.2H344.933a3.2,3.2,0,0,1-3.2-3.2V404.739a3.2,3.2,0,0,1,3.2-3.2H375.64a3.2,3.2,0,0,1,3.2,3.2Z" transform="translate(64.231 -237.862)" fill="#3e4144"/>
    </g>
    <text id="Färdtjänst_Östersund" data-name="Färdtjänst 
Östersund" transform="translate(480 145)" fill="#3e4144" font-size="36" font-family="Verdana-Bold, Verdana" font-weight="700"><tspan x="0" y="36">Färdtjänst </tspan><tspan x="0" y="80">Östersund</tspan></text>
  </g>
</svg>
