<svg id="Phone_orange_midsize" xmlns="http://www.w3.org/2000/svg" width="57" height="57" viewBox="0 0 57 57">
  <rect id="Rectangle_320" data-name="Rectangle 320" width="57" height="57" fill="none"/>
  <path id="Path_110" data-name="Path 110" d="M33.075,40.708l6.106-5.6a1.869,1.869,0,0,1,1.527-.509l1.018.509,14.248,6.615c1.018.509,1.018,1.018,1.018,2.035-.509,4.071-1.527,7.124-4.071,9.159a14.577,14.577,0,0,1-10.686,4.071,31,31,0,0,1-14.248-3.562A66.706,66.706,0,0,1,13.739,43.252c-2.544-3.562-5.6-7.124-7.633-11.195S2.035,24.425,1.018,20.863C0,17.81,0,14.248,0,11.195A13.371,13.371,0,0,1,3.562,3.562C5.6,1.527,8.65.509,13.23,0a2.644,2.644,0,0,1,2.035,1.018L22.9,15.265a1.777,1.777,0,0,0,.509,1.018A1.869,1.869,0,0,1,22.9,17.81l-6.615,6.106a2.271,2.271,0,0,0,0,2.544c1.527,3.053,4.071,5.6,6.106,8.142a51.378,51.378,0,0,0,8.142,6.615C31.548,41.725,32.566,41.725,33.075,40.708Z" transform="translate(0 0)" fill="#f15a1c"/>
</svg>
