<svg id="Phone" xmlns="http://www.w3.org/2000/svg" width="28" height="28" viewBox="0 0 28 28">
  <rect id="Rectangle_320" data-name="Rectangle 320" width="28" height="28" fill="rgba(0,0,0,0)"/>
  <path id="Path_110" data-name="Path 110" d="M16.25,20l3-2.75A.918.918,0,0,1,20,17l.5.25,7,3.25c.5.25.5.5.5,1-.25,2-.75,3.5-2,4.5a7.162,7.162,0,0,1-5.25,2,15.233,15.233,0,0,1-7-1.75,32.773,32.773,0,0,1-7-5A42.582,42.582,0,0,1,3,15.75a34.556,34.556,0,0,1-2.5-5.5A15.385,15.385,0,0,1,0,5.5,6.569,6.569,0,0,1,1.75,1.75C2.75.75,4.25.25,6.5,0a1.3,1.3,0,0,1,1,.5l3.75,7a.873.873,0,0,0,.25.5.918.918,0,0,1-.25.75L8,11.75A1.116,1.116,0,0,0,8,13a23.874,23.874,0,0,0,3,4,25.242,25.242,0,0,0,4,3.25C15.5,20.5,16,20.5,16.25,20Z" transform="translate(0 0)" fill="#f15a1c"/>
</svg>
