<svg id="Component_16_3" data-name="Component 16 – 3" xmlns="http://www.w3.org/2000/svg" width="305.265" height="339.25" viewBox="0 0 305.265 339.25">
  <path id="Icon_awesome-question" data-name="Icon awesome-question" d="M136.291,0C75.444,0,36.032,18.858,5.091,52.491c-5.613,6.1-3.882,14.466,3.947,18.957L41.923,90.31c7.908,4.535,19.159,3.475,25.349-2.392,19.1-18.1,33.26-28.515,63.087-28.515,23.452,0,52.46,11.417,52.46,28.62,0,13-14.192,19.684-37.348,29.5-27,11.452-62.738,25.705-62.738,61.359v5.644c0,7.644,8.191,13.84,18.3,13.84h55.246c10.1,0,18.3-6.2,18.3-13.84V181.2c0-24.716,95.494-25.745,95.494-92.627C270.065,38.207,201,0,136.291,0Zm-7.639,215.359c-29.118,0-52.807,17.92-52.807,39.946s23.689,39.945,52.807,39.945,52.807-17.92,52.807-39.946S157.769,215.359,128.652,215.359Z" transform="translate(35.2 44)" fill="rgba(78,160,239,0.24)"/>
  <path id="Icon_awesome-question-2" data-name="Icon awesome-question" d="M83.737,0C46.666,0,22.655,11.489,3.8,31.979c-3.42,3.717-2.365,8.813,2.4,11.549L26.244,55.02c4.818,2.763,11.672,2.117,15.444-1.457C53.322,42.538,61.951,36.19,80.123,36.19c14.288,0,31.96,6.956,31.96,17.436,0,7.923-8.646,11.992-22.754,17.975-16.452,6.977-38.222,15.661-38.222,37.382v3.439c0,4.657,4.99,8.432,11.146,8.432H95.911c6.156,0,11.146-3.775,11.146-8.432v-2.028c0-15.058,58.178-15.685,58.178-56.432C165.237,23.277,123.158,0,83.737,0ZM79.083,131.2c-17.739,0-32.172,10.917-32.172,24.336s14.432,24.336,32.172,24.336,32.172-10.917,32.172-24.336S96.822,131.2,79.083,131.2Z" transform="translate(-1.8 105)" fill="rgba(193,0,214,0.31)"/>
  <path id="Icon_awesome-question-3" data-name="Icon awesome-question" d="M53.136,0C29.91,0,14.866,7.2,3.056,20.036c-2.142,2.329-1.482,5.522,1.507,7.236l12.552,7.2a8.593,8.593,0,0,0,9.676-.913c7.289-6.907,12.7-10.884,24.081-10.884,8.952,0,20.024,4.358,20.024,10.924,0,4.964-5.417,7.513-14.256,11.262-10.307,4.371-23.947,9.812-23.947,23.421v2.154c0,2.918,3.127,5.283,6.984,5.283H60.763c3.857,0,6.984-2.365,6.984-5.283V69.165c0-9.434,36.45-9.827,36.45-35.356C104.2,14.584,77.834,0,53.136,0ZM50.22,82.2c-11.114,0-20.156,6.84-20.156,15.247S39.105,112.7,50.22,112.7s20.156-6.84,20.156-15.247S61.334,82.2,50.22,82.2Z" transform="translate(182.264)" fill="rgba(229,77,14,0.36)"/>
</svg>
