<svg xmlns="http://www.w3.org/2000/svg" width="176.477" height="102.709" viewBox="0 0 176.477 102.709">
  <g id="Rullstol" transform="translate(0 -15.246)">
    <path id="Path_58" data-name="Path 58" d="M135.509,654.633H82.116s-1.082-15.874,5.321-16.054,5.682,7.035,13.709-2.886,17.768-9.38,19.03-3.517-2.435,10.552,4.329,9.109S141.01,643.63,135.509,654.633Z" transform="translate(-76.249 -550.021)" fill="#249aff"/>
    <path id="Path_59" data-name="Path 59" d="M210.6,654.264l-.18-.007c.42-10.451,2.609-17.166,4.371-20.959a19.026,19.026,0,0,1,3.775-5.8l.12.135a18.89,18.89,0,0,0-3.738,5.757C213.2,637.165,211.018,643.852,210.6,654.264Z" transform="translate(-178.937 -549.648)" fill="#f2f2f2"/>
    <path id="Path_60" data-name="Path 60" d="M307.214,714.331l-.173-.05a27.981,27.981,0,0,1,7.045-11.72l.121.133A27.793,27.793,0,0,0,307.214,714.331Z" transform="translate(-266.399 -609.694)" fill="#f2f2f2"/>
    <path id="Path_61" data-name="Path 61" d="M105.495,698.528l-.179-.025a19.646,19.646,0,0,0-1.767-11.483,15.815,15.815,0,0,0-2.789-4.069l.125-.13a16.011,16.011,0,0,1,2.826,4.12A19.824,19.824,0,0,1,105.495,698.528Z" transform="translate(-91.218 -593.904)" fill="#f2f2f2"/>
    <path id="Path_62" data-name="Path 62" d="M119.574,628.725h-66.4l-.015-.225c-.038-.56-.885-13.758,3.391-18.467a4.684,4.684,0,0,1,3.423-1.642,10.186,10.186,0,0,1,5.952,1.8c2.663,1.58,4.422,2.624,10.819-5.282,6.93-8.565,14.406-10.407,18.7-9.383a6.671,6.671,0,0,1,5.251,5.134,22.783,22.783,0,0,1,.226,6.636c-.145,1.99-.26,3.561.557,4.273.682.594,2.043.648,4.284.17,4.558-.972,10.917-.14,14.109,3.984,1.717,2.219,3.07,6.252-.237,12.866Zm-65.945-.483h65.646c2.464-5,2.541-9.223.221-12.221-2.928-3.783-9.072-4.779-13.627-3.807-2.434.519-3.885.434-4.7-.278-1-.87-.876-2.548-.721-4.672a22.382,22.382,0,0,0-.216-6.5A6.2,6.2,0,0,0,95.338,596c-4.161-.993-11.429.827-18.217,9.217-6.659,8.23-8.665,7.04-11.44,5.394a9.675,9.675,0,0,0-5.692-1.736,4.219,4.219,0,0,0-3.079,1.484C53.066,614.59,53.535,626.458,53.629,628.242Z" transform="translate(-53.068 -523.871)" fill="#cfcce0"/>
    <path id="Path_63" data-name="Path 63" d="M886.509,654.633H833.116s-1.082-15.874,5.321-16.054,5.682,7.035,13.709-2.886,17.768-9.38,19.03-3.517-2.435,10.552,4.329,9.109S892.011,643.63,886.509,654.633Z" transform="translate(-719.37 -550.021)" fill="#249aff"/>
    <path id="Path_64" data-name="Path 64" d="M961.6,654.264l-.18-.007c.42-10.451,2.609-17.166,4.371-20.959a19.022,19.022,0,0,1,3.776-5.8l.12.135a18.89,18.89,0,0,0-3.738,5.757C964.2,637.165,962.018,643.852,961.6,654.264Z" transform="translate(-822.059 -549.648)" fill="#f2f2f2"/>
    <path id="Path_65" data-name="Path 65" d="M1058.218,714.331l-.173-.05a27.981,27.981,0,0,1,7.045-11.72l.121.133A27.757,27.757,0,0,0,1058.218,714.331Z" transform="translate(-899.352 -609.694)" fill="#f2f2f2"/>
    <path id="Path_66" data-name="Path 66" d="M856.495,698.528l-.179-.025a19.645,19.645,0,0,0-1.767-11.483,15.816,15.816,0,0,0-2.789-4.069l.125-.13a16.012,16.012,0,0,1,2.826,4.12A19.823,19.823,0,0,1,856.495,698.528Z" transform="translate(-723.619 -593.904)" fill="#f2f2f2"/>
    <path id="Path_67" data-name="Path 67" d="M870.575,628.725h-66.4l-.016-.225c-.038-.56-.885-13.758,3.391-18.467a4.684,4.684,0,0,1,3.423-1.642,10.186,10.186,0,0,1,5.952,1.8c2.663,1.58,4.422,2.624,10.819-5.282,6.93-8.565,14.406-10.407,18.7-9.383a6.672,6.672,0,0,1,5.251,5.134,22.78,22.78,0,0,1,.226,6.636c-.145,1.99-.26,3.561.557,4.273.682.594,2.043.648,4.284.17,4.558-.972,10.917-.14,14.109,3.984,1.717,2.219,3.07,6.252-.237,12.866Zm-65.945-.483h65.646c2.464-5,2.541-9.223.221-12.221-2.928-3.783-9.071-4.779-13.627-3.807-2.434.519-3.885.434-4.7-.278-1-.87-.877-2.548-.722-4.672a22.378,22.378,0,0,0-.216-6.5A6.2,6.2,0,0,0,846.339,596c-4.161-.993-11.429.827-18.217,9.217-6.659,8.23-8.665,7.04-11.44,5.394a9.676,9.676,0,0,0-5.693-1.736,4.219,4.219,0,0,0-3.079,1.484c-3.844,4.232-3.375,16.1-3.281,17.885Z" transform="translate(-696.19 -523.871)" fill="#cfcce0"/>
    <path id="Path_68" data-name="Path 68" d="M515.792,535.965c-4.68,0-8.783,4.888-11.046,12.186-.16.512-.31,1.038-.45,1.573a45.548,45.548,0,0,0-1.408,11.45c0,13.9,5.788,25.209,12.9,25.209s12.9-11.308,12.9-25.209S522.908,535.965,515.792,535.965Zm0,50.018c-6.895,0-12.5-11.13-12.5-24.809a45.292,45.292,0,0,1,1.426-11.5q.2-.753.424-1.477c2.2-7.1,6.154-11.836,10.654-11.836,6.894,0,12.5,11.13,12.5,24.809S522.686,585.983,515.792,585.983Z" transform="translate(-432.646 -476.43)" fill="#3f3d56"/>
    <path id="Path_69" data-name="Path 69" d="M565.291,618.265c-2.468,0-4.4-6.4-4.4-14.575s1.933-14.576,4.4-14.576,4.4,6.4,4.4,14.576S567.759,618.265,565.291,618.265Zm0-28.751c-2.169,0-4,6.491-4,14.175s1.833,14.175,4,14.175,4-6.491,4-14.175S567.46,589.514,565.291,589.514Z" transform="translate(-479.785 -518.945)" fill="#3f3d56"/>
    <ellipse id="Ellipse_17" data-name="Ellipse 17" cx="1.701" cy="3.348" rx="1.701" ry="3.348" transform="translate(84.189 88.273)" fill="#cfcce0"/>
    <path id="Path_70" data-name="Path 70" d="M513.821,362.526l27.41-.1v10.8l-27.41,1.106Z" transform="translate(-433.775 -307.236)" fill="#3f3d56"/>
    <path id="Path_71" data-name="Path 71" d="M395.222,457.945l-.4-.022,1.211-22h24.8v.4h-24.42Z" transform="translate(-333.188 -371.174)" fill="#3f3d56"/>
    <path id="Path_72" data-name="Path 72" d="M340.619,712.74l-14.005-2.4.083-.392,14.005,2.4Z" transform="translate(-274.791 -601.19)" fill="#3f3d56"/>
    <rect id="Rectangle_32" data-name="Rectangle 32" width="0.4" height="17.064" transform="translate(64.922 116.554) rotate(-85.292)" fill="#3f3d56"/>
    <path id="Path_73" data-name="Path 73" d="M486.555,611.6q-.225.723-.424,1.477l-.418.046L472.7,614.567l-29.811-3,31.011-1.6,12.262,1.583Z" transform="translate(-383.762 -526.769)" fill="#3f3d56"/>
    <path id="Path_74" data-name="Path 74" d="M570.143,256.013s-4.333-1.548-7.119,4.643a122.076,122.076,0,0,1-7.119,13l2.476.619s.619-4.333,2.167-4.952l-.619,5.571s18.571,6.5,26.928-.619l-.309-2.167s1.238.309,1.238,2.167l.928-.929A16.632,16.632,0,0,0,585,269.013c-1.828-1.625-2.457-4.717-2.673-6.65a8.048,8.048,0,0,0-1.853-4.383C578.623,255.834,575.25,253.554,570.143,256.013Z" transform="translate(-478.216 -227.825)" fill="#2f2e41"/>
    <path id="Path_75" data-name="Path 75" d="M495.488,176.5l-1.8-18.807s-3.6-10.2,1.8-9.4,2.2,8.6,2.2,8.6l3,19.607Z" transform="translate(-422.276 -132.996)" fill="#ffb9b9"/>
    <path id="Path_76" data-name="Path 76" d="M376.322,644.426l-2,6.8,3.8,3.2,2.8-8.6Z" transform="translate(-314.382 -548.778)" fill="#ffb9b9"/>
    <path id="Path_77" data-name="Path 77" d="M506.39,741.465l-2,7.2,7,4.4s.2-8.2,1.2-9.8Z" transform="translate(-432.257 -640.815)" fill="#ffb9b9"/>
    <path id="Path_78" data-name="Path 78" d="M457.4,542.266l-1,2s-11.4-5.2-14.405,2-9.6,30.011-9.6,30.011l5.8,2.4,10.6-24.209,24.209-.6,1-13.4Z" transform="translate(-374.642 -480.029)" fill="#2f2e41"/>
    <path id="Path_79" data-name="Path 79" d="M527.358,541.667s-16.406-3.4-17.607,4.8.6,23.809.8,24.209-.8,7.8-.8,7.8l7.2,1s4.6-21.808,2.6-27.41l13.537-.837a9.3,9.3,0,0,0,8.759-8.654c.1-1.789-.345-3.413-1.888-4.313-4.8-2.8-13.6-2.8-13.6-2.8Z" transform="translate(-438.815 -476.03)" fill="#2f2e41"/>
    <path id="Path_80" data-name="Path 80" d="M386.739,741.577s-1.4-3-3.4-1.6-6.6,4.4-6.6,4.4-7.118,2.507-.8,4.2c5.62,1.508,7,1.2,7,1.2s4.6.8,5.2.4,1-6.8,1-6.8S386.339,742.777,386.739,741.577Z" transform="translate(-322.62 -639.326)" fill="#2f2e41"/>
    <path id="Path_81" data-name="Path 81" d="M463,772.87s-2-2.8-3.4-1.6-6.4,4.6-6.4,4.6-8.4,2.4-1,4.6,15.606,1.8,15.806,1a58.36,58.36,0,0,0-.4-6.6S463.4,774.67,463,772.87Z" transform="translate(-386.697 -664.416)" fill="#2f2e41"/>
    <circle id="Ellipse_18" data-name="Ellipse 18" cx="7.203" cy="7.203" r="7.203" transform="translate(87.124 32.617)" fill="#ffb9b9"/>
    <path id="Path_82" data-name="Path 82" d="M580.088,339.465s-.4,8.2-2.4,8.8-7.6,7.2-5,9.2,17.606.6,17.606.6l-1.4-10.4s-3.2-2.2-.6-6Z" transform="translate(-490.12 -299.436)" fill="#ffb9b9"/>
    <path id="Path_83" data-name="Path 83" d="M558.948,373.868l-1.4-6.6-4.6-1.8-3.8,8.8s-4.3,28.51-3.1,28.911a5.409,5.409,0,0,0,2.1.3s6.4-2,8.4-1,12.4,1.8,12.4,1.8,7.2-3.8,6.8-7.2,0-22.408,0-22.408l-.9-8.5L566.96,367.4Z" transform="translate(-469.358 -324.139)" fill="#cfcce0"/>
    <path id="Path_84" data-name="Path 84" d="M462.127,220.833l-.2-1.2-5.6-6.8-3.2-11.4-7.8,3,5.6,13.805,8,10.2Z" transform="translate(-374.911 -171.924)" fill="#cfcce0"/>
    <path id="Path_85" data-name="Path 85" d="M589.857,286.932s2.476-3.4,4.643-4.024,2.476-3.714,2.476-3.714,5.571,6.19,8.976,6.5.31-7.428.31-7.428l-6.19-1.548-5.881.619-4.643,3.1Z" transform="translate(-504.859 -245.432)" fill="#2f2e41"/>
    <path id="Path_86" data-name="Path 86" d="M574.629,452.536l-.194-8.21H555.816l-.595,22.014-.4-.011.606-22.4h19.4l.006.193.2,8.4Z" transform="translate(-467.497 -378.056)" fill="#3f3d56"/>
    <path id="Path_87" data-name="Path 87" d="M650.221,369.867h-.4V354.6l6.458,1.875-.112.384-5.946-1.726Z" transform="translate(-545.749 -301.017)" fill="#3f3d56"/>
    <path id="Path_88" data-name="Path 88" d="M662.792,556.965c-4.68,0-8.783,4.888-11.046,12.186-.16.512-.31,1.038-.45,1.573a45.536,45.536,0,0,0-1.409,11.45c0,13.9,5.788,25.209,12.9,25.209s12.9-11.308,12.9-25.209S669.908,556.965,662.792,556.965Zm0,50.018c-6.894,0-12.5-11.13-12.5-24.809a45.294,45.294,0,0,1,1.426-11.5q.2-.753.424-1.477c2.2-7.1,6.154-11.836,10.654-11.836,6.894,0,12.5,11.13,12.5,24.809S669.686,606.983,662.792,606.983Z" transform="translate(-556.691 -493.228)" fill="#3f3d56"/>
    <path id="Path_89" data-name="Path 89" d="M712.291,639.265c-2.468,0-4.4-6.4-4.4-14.575s1.933-14.575,4.4-14.575,4.4,6.4,4.4,14.575S714.759,639.265,712.291,639.265Zm0-28.751c-2.169,0-4,6.492-4,14.175s1.833,14.175,4,14.175,4-6.491,4-14.175S714.46,610.514,712.291,610.514Z" transform="translate(-603.308 -535.743)" fill="#3f3d56"/>
    <ellipse id="Ellipse_19" data-name="Ellipse 19" cx="1.701" cy="3.348" rx="1.701" ry="3.348" transform="translate(107.815 91.507)" fill="#cfcce0"/>
    <path id="Path_90" data-name="Path 90" d="M665.821,352.926l4.2,1.6-.8,2.2-3.4-1.4Z" transform="translate(-558.907 -298.256)" fill="#3f3d56"/>
    <path id="Path_91" data-name="Path 91" d="M582.821,438.926v3.2h11.921v-2.988Z" transform="translate(-490.093 -370.853)" fill="#3f3d56"/>
    <path id="Path_92" data-name="Path 92" d="M429.821,430.926v3.2h11.921v-2.988Z" transform="translate(-361.436 -364.094)" fill="#3f3d56"/>
    <path id="Path_95" data-name="Path 95" d="M556.6,447.325h-.1v-2.664a1.542,1.542,0,0,0-1.542-1.542h-5.645a1.542,1.542,0,0,0-1.542,1.542v14.616a1.542,1.542,0,0,0,1.542,1.542h5.645a1.542,1.542,0,0,0,1.542-1.542V449.221h.1Z" transform="translate(-468.769 -387.381)" fill="#3f3d56"/>
    <circle id="Ellipse_20" data-name="Ellipse 20" cx="0.945" cy="0.945" r="0.945" transform="translate(82.437 60.492)" fill="#d0cde1"/>
    <path id="Path_96" data-name="Path 96" d="M576.894,488.258,558,487.9s-10.548,2.414-9.137-2.861,8.8-1.206,8.8-1.206l19.821-.746Z" transform="translate(-471.674 -419.075)" fill="#ffb9b9"/>
    <path id="Path_97" data-name="Path 97" d="M641.493,369.519l1.8-1.4s3-1.6,3.6,4,5,24.209.6,24.409-15.606.4-15.606.4l1.2-6.2,9.2-.6Z" transform="translate(-540.46 -324.833)" fill="#cfcce0"/>
    <path id="Path_98" data-name="Path 98" d="M592.224,346.926l-.6,11.4-8.8,1.8,8-3.2Z" transform="translate(-489.806 -294.252)" opacity="0.15"/>
  </g>
</svg>
