<svg id="Symbol_62_2" data-name="Symbol 62 – 2" xmlns="http://www.w3.org/2000/svg" width="30" height="30" viewBox="0 0 30 30">
  <rect id="Rectangle_176" data-name="Rectangle 176" width="30" height="30" fill="rgba(0,0,0,0)"/>
  <path id="Path_99" data-name="Path 99" d="M29.813,27.188,23.625,21a12.838,12.838,0,0,0,2.625-7.875A13.044,13.044,0,0,0,13.125,0,13.044,13.044,0,0,0,0,13.125,13.044,13.044,0,0,0,13.125,26.25,12.838,12.838,0,0,0,21,23.625l6.188,6.188ZM3.75,13.125A9.284,9.284,0,0,1,13.125,3.75,9.284,9.284,0,0,1,22.5,13.125,9.284,9.284,0,0,1,13.125,22.5,9.284,9.284,0,0,1,3.75,13.125Z" fill="#f15a1c"/>
</svg>
