<svg id="Time" xmlns="http://www.w3.org/2000/svg" width="57.059" height="57.059" viewBox="0 0 57.059 57.059">
  <path id="Path_13" data-name="Path 13" d="M8.559,8.559A25.9,25.9,0,0,1,28.53,0,25.9,25.9,0,0,1,48.5,8.559,25.9,25.9,0,0,1,57.059,28.53,25.9,25.9,0,0,1,48.5,48.5,25.9,25.9,0,0,1,28.53,57.059,25.9,25.9,0,0,1,8.559,48.5C3.328,42.794,0,36.613,0,28.53A25.9,25.9,0,0,1,8.559,8.559ZM41.368,41.368,44.7,38.039,32.809,26.152,28.53,7.132H23.775v21.4A4.317,4.317,0,0,0,25.2,31.858a1.66,1.66,0,0,0,.951.475Z" fill="#e54d0e"/>
</svg>
